<svg width="159" height="153" viewBox="0 0 159 153" fill="none" xmlns="http://www.w3.org/2000/svg">
<rect x="47.0925" y="37.2637" width="70.2857" height="58.5714" rx="29.2857" fill="#B95FFF"/>
<path d="M65.8357 54.8346C65.8357 52.8937 67.4091 51.3203 69.35 51.3203H74.0357C75.9766 51.3203 77.55 52.8937 77.55 54.8346V59.5203C77.55 61.4612 75.9766 63.0346 74.0357 63.0346H69.35C67.4091 63.0346 65.8357 61.4612 65.8357 59.5203V54.8346Z" stroke="white" stroke-width="4" stroke-linecap="round"/>
<path d="M85.7498 54.8346C85.7498 52.8937 87.3232 51.3203 89.264 51.3203H93.9498C95.8906 51.3203 97.464 52.8937 97.464 54.8346V59.5203C97.464 61.4612 95.8906 63.0346 93.9498 63.0346H89.264C87.3232 63.0346 85.7498 61.4612 85.7498 59.5203V54.8346Z" stroke="white" stroke-width="4" stroke-linecap="round"/>
<path d="M65.8357 73.5787C65.8357 71.6379 67.4091 70.0645 69.35 70.0645H74.0357C75.9766 70.0645 77.55 71.6379 77.55 73.5787V78.2645C77.55 80.2053 75.9766 81.7787 74.0357 81.7787H69.35C67.4091 81.7787 65.8357 80.2053 65.8357 78.2645V73.5787Z" stroke="white" stroke-width="4" stroke-linecap="round"/>
<path d="M85.7498 73.5787C85.7498 71.6379 87.3232 70.0645 89.264 70.0645H93.9498C95.8906 70.0645 97.464 71.6379 97.464 73.5787V78.2645C97.464 80.2053 95.8906 81.7787 93.9498 81.7787H89.264C87.3232 81.7787 85.7498 80.2053 85.7498 78.2645V73.5787Z" stroke="white" stroke-width="4" stroke-linecap="round"/>
</svg>
