<svg width="184" height="133" viewBox="0 0 184 133" fill="none" xmlns="http://www.w3.org/2000/svg">
<rect x="56.8571" y="37.2148" width="70.2857" height="58.5714" rx="29.2857" fill="#B95FFF"/>
<path d="M97.8577 55.9583C97.8577 59.8401 94.7108 62.9869 90.829 62.9869C86.9472 62.9869 83.8005 59.8401 83.8005 55.9583C83.8005 52.0765 86.9472 48.9297 90.829 48.9297C94.7108 48.9297 97.8577 52.0765 97.8577 55.9583Z" stroke="white" stroke-width="4" stroke-linecap="round"/>
<path d="M91.0055 67.6719C84.2545 67.6719 78.5706 72.2404 76.8768 78.4547C76.3097 80.5353 78.1109 82.3147 80.2674 82.3147H101.744C103.9 82.3147 105.701 80.5353 105.134 78.4547C103.441 72.2404 97.7566 67.6719 91.0055 67.6719Z" stroke="white" stroke-width="4" stroke-linecap="round"/>
</svg>
