<svg width="71" height="60" viewBox="0 0 71 60" fill="none" xmlns="http://www.w3.org/2000/svg">
<rect x="0.151367" width="70" height="60" rx="30" fill="#B95FFF"/>
<path d="M18.8174 18.0004C18.8174 16.0122 20.3844 14.4004 22.3174 14.4004H26.9841C28.9171 14.4004 30.4841 16.0122 30.4841 18.0004V22.8004C30.4841 24.7886 28.9171 26.4004 26.9841 26.4004H22.3174C20.3844 26.4004 18.8174 24.7886 18.8174 22.8004V18.0004Z" stroke="white" stroke-width="4" stroke-linecap="round"/>
<path d="M38.6514 18.0004C38.6514 16.0122 40.2184 14.4004 42.1514 14.4004H46.818C48.751 14.4004 50.318 16.0122 50.318 18.0004V22.8004C50.318 24.7886 48.751 26.4004 46.818 26.4004H42.1514C40.2184 26.4004 38.6514 24.7886 38.6514 22.8004V18.0004Z" stroke="white" stroke-width="4" stroke-linecap="round"/>
<path d="M18.8174 37.2016C18.8174 35.2134 20.3844 33.6016 22.3174 33.6016H26.9841C28.9171 33.6016 30.4841 35.2134 30.4841 37.2016V42.0016C30.4841 43.9897 28.9171 45.6016 26.9841 45.6016H22.3174C20.3844 45.6016 18.8174 43.9897 18.8174 42.0016V37.2016Z" stroke="white" stroke-width="4" stroke-linecap="round"/>
<path d="M38.6514 37.2016C38.6514 35.2134 40.2184 33.6016 42.1514 33.6016H46.818C48.751 33.6016 50.318 35.2134 50.318 37.2016V42.0016C50.318 43.9897 48.751 45.6016 46.818 45.6016H42.1514C40.2184 45.6016 38.6514 43.9897 38.6514 42.0016V37.2016Z" stroke="white" stroke-width="4" stroke-linecap="round"/>
</svg>
